<?xml version="1.0" standalone="no"?>
<svg xmlns="http://www.w3.org/2000/svg" viewBox="0 0 95 29" width="95" height="29"><path fill="#5e00ff" fill-rule="nonzero" d="M7.49 16.99Q6.50 16.99 6 15.89L6 15.89L0.07 1.51Q0 1.32 0 1.10L0 1.10Q0 0.60 0.29 0.30Q0.58 0 1.08 0L1.08 0Q1.42 0 1.69 0.20Q1.97 0.41 2.11 0.74L2.11 0.74L7.75 14.81L13.39 0.74Q13.54 0.41 13.81 0.20Q14.09 0 14.42 0L14.42 0Q14.93 0 15.22 0.30Q15.50 0.60 15.50 1.10L15.50 1.10Q15.50 1.32 15.43 1.51L15.43 1.51L9.50 15.89Q9 16.99 8.02 16.99L8.02 16.99L7.49 16.99ZM22.06 17.11Q20.21 17.11 18.82 16.32Q17.42 15.53 16.67 14.08Q15.91 12.62 15.91 10.75L15.91 10.75Q15.91 8.88 16.67 7.43Q17.42 5.98 18.82 5.18Q20.21 4.39 22.06 4.39L22.06 4.39Q23.88 4.39 25.27 5.18Q26.66 5.98 27.43 7.43Q28.20 8.88 28.20 10.75L28.20 10.75Q28.20 12.62 27.43 14.08Q26.66 15.53 25.27 16.32Q23.88 17.11 22.06 17.11L22.06 17.11ZM22.06 15.12Q23.04 15.12 23.94 14.66Q24.84 14.21 25.43 13.22Q26.02 12.24 26.02 10.73L26.02 10.73Q26.02 9.24 25.43 8.26Q24.84 7.27 23.94 6.83Q23.04 6.38 22.06 6.38L22.06 6.38Q21.05 6.38 20.15 6.83Q19.25 7.27 18.67 8.26Q18.10 9.24 18.10 10.73L18.10 10.73Q18.10 12.24 18.67 13.22Q19.25 14.21 20.15 14.66Q21.05 15.12 22.06 15.12L22.06 15.12ZM31.30 16.99Q30.82 16.99 30.54 16.69Q30.26 16.39 30.26 15.89L30.26 15.89Q30.26 15.53 30.50 15.22L30.50 15.22L34.22 10.82L30.50 6.29Q30.24 5.95 30.24 5.59L30.24 5.59Q30.24 5.11 30.55 4.81Q30.86 4.51 31.32 4.51L31.32 4.51Q31.90 4.51 32.18 4.92L32.18 4.92L35.54 9.07L38.88 4.92Q39.17 4.51 39.72 4.51L39.72 4.51Q40.20 4.51 40.51 4.81Q40.82 5.11 40.82 5.54L40.82 5.54Q40.82 5.90 40.58 6.22L40.58 6.22L36.79 10.68L40.54 15.19Q40.80 15.48 40.80 15.89L40.80 15.89Q40.80 16.34 40.51 16.67Q40.22 16.99 39.70 16.99L39.70 16.99Q39.17 16.99 38.86 16.56L38.86 16.56L35.45 12.48L32.23 16.51Q31.87 16.99 31.30 16.99L31.30 16.99ZM45.31 16.99Q44.86 16.99 44.54 16.68Q44.23 16.37 44.23 15.91L44.23 15.91L44.23 1.10Q44.23 0.65 44.54 0.32Q44.86 0 45.31 0L45.31 0Q45.77 0 46.09 0.32Q46.42 0.65 46.42 1.10L46.42 1.10L46.42 7.49L55.51 7.49L55.51 1.10Q55.51 0.65 55.82 0.32Q56.14 0 56.59 0L56.59 0Q57.05 0 57.37 0.32Q57.70 0.65 57.70 1.10L57.70 1.10L57.70 15.91Q57.70 16.37 57.37 16.68Q57.05 16.99 56.59 16.99L56.59 16.99Q56.14 16.99 55.82 16.68Q55.51 16.37 55.51 15.91L55.51 15.91L55.51 9.53L46.42 9.53L46.42 15.91Q46.42 16.37 46.09 16.68Q45.77 16.99 45.31 16.99L45.31 16.99ZM66.98 17.11Q65.14 17.11 63.74 16.32Q62.35 15.53 61.60 14.08Q60.84 12.62 60.84 10.75L60.84 10.75Q60.84 8.88 61.60 7.43Q62.35 5.98 63.74 5.18Q65.14 4.39 66.98 4.39L66.98 4.39Q68.81 4.39 70.20 5.18Q71.59 5.98 72.36 7.43Q73.13 8.88 73.13 10.75L73.13 10.75Q73.13 12.62 72.36 14.08Q71.59 15.53 70.20 16.32Q68.81 17.11 66.98 17.11L66.98 17.11ZM66.98 15.12Q67.97 15.12 68.87 14.66Q69.77 14.21 70.36 13.22Q70.94 12.24 70.94 10.73L70.94 10.73Q70.94 9.24 70.36 8.26Q69.77 7.27 68.87 6.83Q67.97 6.38 66.98 6.38L66.98 6.38Q65.98 6.38 65.08 6.83Q64.18 7.27 63.60 8.26Q63.02 9.24 63.02 10.73L63.02 10.73Q63.02 12.24 63.60 13.22Q64.18 14.21 65.08 14.66Q65.98 15.12 66.98 15.12L66.98 15.12ZM80.14 17.11Q77.74 17.11 75.77 16.03L75.77 16.03Q75.36 15.74 75.36 15.24L75.36 15.24Q75.36 14.86 75.62 14.57Q75.89 14.28 76.30 14.28L76.30 14.28Q76.51 14.28 76.73 14.38L76.73 14.38Q77.50 14.71 78.26 14.90Q79.03 15.10 79.99 15.10L79.99 15.10Q82.66 15.10 82.66 13.39L82.66 13.39Q82.66 12.84 82.04 12.55Q81.43 12.26 80.04 11.90L80.04 11.90Q78.62 11.57 77.70 11.21Q76.78 10.85 76.12 10.12Q75.46 9.38 75.46 8.18L75.46 8.18Q75.46 6.50 76.67 5.45Q77.88 4.39 80.14 4.39L80.14 4.39Q81.98 4.39 83.62 4.99L83.62 4.99Q83.95 5.09 84.13 5.35Q84.31 5.62 84.31 5.90L84.31 5.90Q84.31 6.29 84.04 6.58Q83.76 6.86 83.35 6.86L83.35 6.86Q83.23 6.86 83.04 6.82L83.04 6.82Q81.65 6.38 80.30 6.38L80.30 6.38Q79.01 6.38 78.28 6.85Q77.54 7.32 77.54 8.06L77.54 8.06Q77.54 8.78 78.22 9.12Q78.89 9.46 80.30 9.77L80.30 9.77Q81.72 10.13 82.61 10.48Q83.50 10.82 84.13 11.57Q84.77 12.31 84.77 13.56L84.77 13.56Q84.77 15.10 83.56 16.10Q82.34 17.11 80.14 17.11L80.14 17.11ZM91.82 17.11Q88.32 17.11 88.32 13.94L88.32 13.94L88.32 6.50L86.62 6.50Q86.42 6.50 86.29 6.37Q86.16 6.24 86.16 6.05L86.16 6.05Q86.16 5.81 86.38 5.64L86.38 5.64L89.64 2.45Q89.86 2.23 90.05 2.23L90.05 2.23Q90.24 2.23 90.37 2.38Q90.50 2.52 90.50 2.71L90.50 2.71L90.50 4.63L93.22 4.63Q93.62 4.63 93.89 4.90Q94.15 5.16 94.15 5.57L94.15 5.57Q94.15 5.95 93.89 6.23Q93.62 6.50 93.22 6.50L93.22 6.50L90.50 6.50L90.50 13.75Q90.50 14.69 90.95 14.94Q91.39 15.19 92.06 15.19L92.06 15.19Q92.54 15.19 93.02 15.05L93.02 15.05Q93.12 15.02 93.23 15Q93.34 14.98 93.50 14.98L93.50 14.98Q93.84 14.98 94.10 15.23Q94.37 15.48 94.37 15.84L94.37 15.84Q94.37 16.39 93.82 16.68L93.82 16.68Q92.88 17.11 91.82 17.11L91.82 17.11Z"></path><line x1="28.310399999999998" y1="27.112" x2="66.0576" y2="27.112" stroke="#5e00ff" stroke-linecap="round"></line></svg>